:SAMPLES-PER-SECOND 30
:FULLY-SPECIFIED
:DEGREES
450
root  -67.4927 30.6156 -8.68907 -172.646 -37.0184 170.129
RightUpLeg  -38.2297 -21.6425 6.17795
RightLeg  73.3597 -5.31785 -14.24
RightFoot  -18.3597 0.677335 4.56724
RightToes  -14.7983 -0.0543985 -0.133741
Spine  8.99393 -6.06598 -3.6445
Spine1  17.5529 -12.852 -5.52297
HEad  27.1053 -28.2646 25.633
LeftShoulder1  0 -2.42657e-020 -4.95415e-022
LeftArm  -5.22766 -14.8825 -79.4036
LeftForeArm  -168.438 -39.9775 -8.00093
LeftHand  11.2031 -28.588 -42.4866
RightShoulder  0 2.42657e-020 1.07489e-018
RightArm  -36.2248 -7.40147 92.6162
RightForeArm  40.359 28.4863 5.47547
RightHand  0.385121 24.5172 2.14289
LeftUpLeg  -20.5454 2.0799 7.0366
LeftLeg  41.5073 -2.66475 -2.07285
LeftFoot  -5.50446 -0.00605176 -0.125897
LeftToes  -49.1788 1.18758e-006 1.19596e-007
451
root  -68.5012 31.3338 -10.3212 -173.614 -33.674 172.4
RightUpLeg  -41.8736 -20.6619 10.1059
RightLeg  61.9427 -7.2498 -11.6175
RightFoot  -17.8941 0.546976 3.85091
RightToes  -15.1195 -0.0559549 -0.13647
Spine  9.39711 -7.67129 -3.15621
Spine1  18.2749 -16.9721 -3.84671
HEad  27.7189 -24.3238 24.1116
LeftShoulder1  0 -2.42657e-020 -4.95415e-022
LeftArm  -9.21993 -18.2918 -78.7508
LeftForeArm  -172.952 -38.4407 -7.55865
LeftHand  11.3998 -29.8486 -41.4379
RightShoulder  0 2.42657e-020 1.07489e-018
RightArm  -33.35 -6.29218 93.5719
RightForeArm  39.9967 29.2891 5.66179
RightHand  0.696668 24.9402 3.52037
LeftUpLeg  -13.33 4.57171 8.50925
LeftLeg  35.0195 -1.23861 -0.758585
LeftFoot  -5.17192 -0.020095 -0.444938
LeftToes  -47.916 1.18758e-006 1.19596e-007
452
root  -69.5292 31.7385 -11.9459 -173.026 -30.5747 173.23
RightUpLeg  -44.6245 -18.7191 12.4585
RightLeg  49.1445 -7.31688 -7.41326
RightFoot  -16.1635 0.297437 2.47211
RightToes  -20.1523 -0.0823093 -0.178046
Spine  9.46739 -9.39028 -2.91959
Spine1  18.465 -21.3603 -2.72312
HEad  27.3112 -20.8394 23.4367
LeftShoulder1  0 -2.42657e-020 -4.95415e-022
LeftArm  -15.7568 -21.0812 -77.4651
LeftForeArm  -175.496 -35.2891 -6.70213
LeftHand  11.4007 -31.7952 -39.0054
RightShoulder  0 2.42657e-020 1.07489e-018
RightArm  -29.0841 -5.50801 93.525
RightForeArm  39.5661 30.4325 5.93237
RightHand  0.921414 25.1737 4.49603
LeftUpLeg  -7.69905 7.21034 8.87315
LeftLeg  29.9935 0.127539 0.0593513
LeftFoot  -4.10382 -0.0255733 -0.713781
LeftToes  -47.8774 1.18758e-006 1.19596e-007
453
root  -70.5721 31.8373 -13.5573 -171.754 -28.3507 173.086
RightUpLeg  -46.7547 -16.787 13.241
RightLeg  36.5023 -7.34343 -4.72665
RightFoot  -15.2152 0.209986 1.94972
RightToes  -24.0594 -0.105225 -0.208633
Spine  9.48355 -11.0199 -2.82779
Spine1  18.6633 -25.5088 -1.99113
HEad  25.6309 -18.6684 23.7525
LeftShoulder1  0 -2.42657e-020 -4.95415e-022
LeftArm  -22.6975 -24.1434 -75.59
LeftForeArm  -176.439 -30.364 -5.486
LeftHand  11.0282 -32.6619 -36.8476
RightShoulder  0 2.42657e-020 1.07489e-018
RightArm  -25.3333 -5.41903 92.9376
RightForeArm  39.201 33.3586 6.65532
RightHand  0.863787 25.0033 4.2654
LeftUpLeg  -3.49196 9.40246 8.69085
LeftLeg  26.7637 0.397689 0.166222
LeftFoot  -2.86442 -0.0216134 -0.864461
LeftToes  -49.8295 1.18758e-006 1.19596e-007
454
root  -71.6614 31.6626 -15.1991 -170.596 -26.3775 172.269
RightUpLeg  -48.4517 -15.0462 12.7701
RightLeg  26.5817 -10.4784 -4.39478
RightFoot  -16.552 0.403789 3.15317
RightToes  -18.0894 -0.0710658 -0.161285
Spine  9.31087 -12.042 -2.80044
Spine1  18.4915 -28.1092 -1.73826
HEad  23.7978 -17.8886 23.7324
LeftShoulder1  0 -2.42657e-020 -4.95415e-022
LeftArm  -30.0786 -25.1059 -74.2884
LeftForeArm  -178.4 -26.6078 -4.641
LeftHand  11.6054 -35.7911 -35.315
RightShoulder  0 2.42657e-020 1.07489e-018
RightArm  -22.9463 -6.56844 91.5451
RightForeArm  38.2247 37.3204 7.71982
RightHand  0.819445 24.7293 4.10783
LeftUpLeg  0.685122 10.9727 8.20469
LeftLeg  24.5887 -0.332115 -0.129829
LeftFoot  -2.10288 -0.0165659 -0.90261
LeftToes  -52.7196 1.18758e-006 1.19596e-007
455
root  -72.8383 31.2476 -16.884 -169.579 -24.3296 170.878
RightUpLeg  -50.9816 -15.9559 13.497
RightLeg  21.0589 -11.411 -3.5409
RightFoot  -15.7483 0.391284 3.20634
RightToes  -21.4408 -0.0896354 -0.188305
Spine  9.11178 -12.2567 -2.80371
Spine1  18.1391 -28.5998 -1.95312
HEad  21.3922 -17.9439 23.2529
LeftShoulder1  0 -2.42657e-020 -4.95415e-022
LeftArm  -36.9572 -22.5764 -74.0669
LeftForeArm  176.098 -26.0989 -4.53851
LeftHand  11.0935 -36.5102 -33.1856
RightShoulder  0 2.42657e-020 1.07489e-018
RightArm  -22.0197 -8.63414 89.3834
RightForeArm  37.5705 42.4894 9.29835
RightHand  0.763116 24.1729 3.93365
LeftUpLeg  4.84427 12.1148 7.01441
LeftLeg  23.3851 -0.56736 -0.205978
LeftFoot  -1.66832 -0.0127976 -0.878953
LeftToes  -56.1413 1.18758e-006 1.19596e-007
456
root  -73.9896 30.7393 -18.6453 -169.125 -22.115 169.853
RightUpLeg  -52.9817 -16.8101 14.5187
RightLeg  20.5134 -13.3325 -3.98708
RightFoot  -15.4877 0.448551 3.67537
RightToes  -18.9991 -0.0759494 -0.168726
Spine  9.11555 -11.757 -2.57174
Spine1  18.0575 -27.1352 -2.03909
HEad  16.7084 -18.1832 23.8009
LeftShoulder1  0 -2.42657e-020 -4.95415e-022
LeftArm  -35.974 -18.8802 -75.1163
LeftForeArm  172.369 -31.3041 -5.72608
LeftHand  12.1085 -37.2152 -35.3459
RightShoulder  0 2.42657e-020 1.07489e-018
RightArm  -22.1771 -10.4853 86.7795
RightForeArm  36.6004 46.9657 10.9016
RightHand  0.693939 23.3948 3.72176
LeftUpLeg  8.85337 12.7861 5.95163
LeftLeg  23.1507 -0.00106304 -0.0031462
LeftFoot  -0.625986 -0.00446253 -0.816883
LeftToes  -61.463 1.18758e-006 1.19596e-007
457
root  -75.0898 30.1025 -20.5217 -169.173 -21.0122 169.058
RightUpLeg  -54.4076 -19.5621 16.4086
RightLeg  24.0175 -15.5896 -5.68442
RightFoot  -16.233 0.604182 4.61232
RightToes  -12.3092 -0.0428581 -0.112298
Spine  9.29821 -11.0491 -2.01087
Spine1  18.1833 -25.2741 -1.32187
HEad  10.4515 -20.2765 25.8481
LeftShoulder1  0 -2.42657e-020 -4.95415e-022
LeftArm  -33.9092 -16.7233 -78.6639
LeftForeArm  168.406 -36.9831 -7.18541
LeftHand  13.5264 -36.1134 -40.3551
RightShoulder  0 2.42657e-020 1.07489e-018
RightArm  -25.0921 -12.7112 84.5863
RightForeArm  35.8739 50.6228 12.434
RightHand  0.554957 23.1438 3.08065
LeftUpLeg  10.8564 11.0768 4.82076
LeftLeg  27.0205 0.747267 0.319119
LeftFoot  0.618891 0.00405336 -0.750501
LeftToes  -66.8322 1.18758e-006 1.19596e-007
458
root  -76.0452 29.3887 -22.503 -168.809 -20.9023 168.406
RightUpLeg  -54.4049 -21.8306 17.3191
RightLeg  26.722 -15.3873 -6.43668
RightFoot  -17.0675 0.676048 4.88087
RightToes  -5.96379 -0.0177477 -0.0555557
Spine  9.0161 -10.2799 -1.07724
Spine1  17.2748 -23.3212 0.0647246
HEad  5.93272 -23.8654 27.6884
LeftShoulder1  0 -2.42657e-020 -4.95415e-022
LeftArm  -32.7509 -13.1569 -84.121
LeftForeArm  170.283 -44.738 -9.56892
LeftHand  13.6166 -35.053 -41.7944
RightShoulder  0 2.42657e-020 1.07489e-018
RightArm  -28.4679 -16.0038 82.209
RightForeArm  34.1239 52.6066 13.3745
RightHand  0.372729 22.6922 2.22801
LeftUpLeg  9.38882 10.9914 5.73618
LeftLeg  36.263 -2.60633 -1.66925
LeftFoot  4.35964 0.0403252 -1.0594
LeftToes  -73.6682 1.18758e-006 1.19596e-007
459
root  -76.6697 28.6025 -24.0668 -166.801 -18.3604 167.922
RightUpLeg  -60.0577 -15.9738 14.7728
RightLeg  37.6286 -13.539 -8.96532
RightFoot  -13.7945 0.400867 3.69074
RightToes  10.9256 0.0171963 0.105336
Spine  8.13152 -9.05203 -0.468192
Spine1  15.2698 -20.239 0.685042
HEad  2.27902 -25.9226 30.6343
LeftShoulder1  0 -2.42657e-020 -4.95415e-022
LeftArm  -31.5515 -8.63116 -88.0008
LeftForeArm  179.756 -56.4936 -14.8164
LeftHand  12.5776 -33.0957 -41.0767
RightShoulder  0 2.42657e-020 1.07489e-018
RightArm  -30.4424 -16.7763 80.7037
RightForeArm  31.0172 49.4873 11.9364
RightHand  0.289406 22.3836 1.83315
LeftUpLeg  2.54661 12.7715 6.57126
LeftLeg  50.939 -5.73899 -6.18317
LeftFoot  11.6166 0.261297 -2.56831
LeftToes  -68.4985 1.18758e-006 1.19596e-007
460
root  -77.0887 27.8591 -25.7915 -168.534 -11.4829 171.085
RightUpLeg  -61.444 -6.6417 14.2298
RightLeg  48.7002 -13.3273 -13.0161
RightFoot  -9.91544 0.210413 2.80303
RightToes  10.2309 0.0167037 0.0985571
Spine  9.67671 -7.35967 0.217235
Spine1  17.6414 -16.7941 1.98471
HEad  -2.12172 -24.2037 34.4889
LeftShoulder1  0 -2.42657e-020 -4.95415e-022
LeftArm  -30.2726 -8.0964 -88.3068
LeftForeArm  -167.321 -65.4444 -21.8559
LeftHand  12.2332 -31.7503 -41.6719
RightShoulder  0 2.42657e-020 1.07489e-018
RightArm  -29.6746 -8.41542 79.3939
RightForeArm  27.844 38.1021 7.95098
RightHand  0.166435 21.8344 1.23324
LeftUpLeg  -1.33535 15.7556 10.4594
LeftLeg  65.9294 -7.00782 -13.0673
LeftFoot  22.5393 1.36652 -6.8498
LeftToes  -45.9571 1.18758e-006 1.19596e-007
461
root  -77.5042 27.0038 -27.3181 -169.424 -7.6279 171.613
RightUpLeg  -62.8945 -4.15239 14.9251
RightLeg  56.072 -10.7781 -13.6963
RightFoot  -8.83439 0.119651 1.92654
RightToes  22.0522 0.0165933 0.213973
Spine  11.4997 -6.92166 0.782121
Spine1  20.7176 -15.8145 1.83549
HEad  -3.41024 -22.9574 36.3204
LeftShoulder1  0 -2.42657e-020 -4.95415e-022
LeftArm  -28.8599 -10.839 -86.1348
LeftForeArm  -155.328 -69.9193 -27.7809
LeftHand  11.7316 -29.5427 -42.9532
RightShoulder  0 2.42657e-020 1.07489e-018
RightArm  -29.5292 0.799545 80.2434
RightForeArm  30.237 30.1462 5.87241
RightHand  -0.184379 22.1908 -0.570317
LeftUpLeg  -8.04998 11.9673 9.97246
LeftLeg  79.6755 -6.15913 -23.2985
LeftFoot  24.6117 2.60693 -11.9096
LeftToes  -48.1336 1.18758e-006 1.19596e-007
462
root  -77.9579 26.3769 -28.631 -169.477 -3.59256 171.422
RightUpLeg  -64.5464 -0.0140933 13.7775
RightLeg  63.594 -8.89354 -15.029
RightFoot  -12.5262 0.273504 2.86941
RightToes  21.9142 0.0166104 0.212634
Spine  12.9107 -6.38406 1.23215
Spine1  22.8785 -14.7264 1.47359
HEad  -2.8738 -23.005 36.4005
LeftShoulder1  0 -2.42657e-020 -4.95415e-022
LeftArm  -27.1176 -16.8319 -84.1098
LeftForeArm  -151.5 -67.9492 -24.8334
LeftHand  11.0921 -27.8701 -43.1235
RightShoulder  0 2.42657e-020 1.07489e-018
RightArm  -35.4576 9.72021 82.8363
RightForeArm  37.1609 22.6174 4.20013
RightHand  -0.497018 23.4441 -2.02555
LeftUpLeg  -15.4872 8.14954 8.00053
LeftLeg  88.5472 -2.5857 -26.7276
LeftFoot  17.0589 1.49069 -9.91525
LeftToes  -49.0614 1.18758e-006 1.19596e-007
463
root  -78.3133 25.9321 -29.8583 -168.88 1.73734 172.353
RightUpLeg  -65.1801 4.70636 14.09
RightLeg  68.1327 -7.24492 -14.9042
RightFoot  -15.4087 0.386192 3.23183
RightToes  22.3785 0.0167366 0.213025
Spine  14.6347 -5.62108 1.78726
Spine1  25.3315 -13.4207 1.56244
HEad  -2.78514 -22.014 35.5035
LeftShoulder1  0 -2.42657e-020 -4.95415e-022
LeftArm  -25.517 -24.8092 -82.1792
LeftForeArm  -149.418 -62.9866 -19.4275
LeftHand  10.3794 -26.4221 -42.6826
RightShoulder  0 2.42657e-020 1.07489e-018
RightArm  -45.1791 19.2721 86.0147
RightForeArm  45.7266 15.6851 2.81645
RightHand  -0.973734 22.876 -4.44119
LeftUpLeg  -23.4189 6.49679 7.8992
LeftLeg  94.4455 0.315758 -21.987
LeftFoot  11.8999 0.669535 -6.41754
LeftToes  -46.224 1.18758e-006 1.19596e-007
